<mxfile host="Electron" agent="Mozilla/5.0 (X11; Linux x86_64) AppleWebKit/537.36 (KHTML, like Gecko) draw.io/24.7.8 Chrome/128.0.6613.36 Electron/32.0.1 Safari/537.36" version="24.7.8">
  <diagram name="Constraints" id="MTWnLbY3zgDIhAuiVK2H">
    <mxGraphModel dx="904" dy="1676" grid="1" gridSize="10" guides="1" tooltips="1" connect="1" arrows="1" fold="1" page="1" pageScale="1" pageWidth="850" pageHeight="1100" math="0" shadow="0">
      <root>
        <mxCell id="0" />
        <mxCell id="1" parent="0" />
        <mxCell id="Wm-q2kJo23_BuhXE9oVK-57" value="" style="rounded=0;whiteSpace=wrap;html=1;fillColor=none;" parent="1" vertex="1">
          <mxGeometry x="40" y="320" width="240" height="240" as="geometry" />
        </mxCell>
        <mxCell id="Wm-q2kJo23_BuhXE9oVK-58" value="" style="rounded=0;whiteSpace=wrap;html=1;fillColor=none;" parent="1" vertex="1">
          <mxGeometry x="320" y="320" width="240" height="240" as="geometry" />
        </mxCell>
        <mxCell id="iDNPAJtmDNIAjIKIuADV-1" value="" style="rounded=0;whiteSpace=wrap;html=1;fillColor=none;" parent="1" vertex="1">
          <mxGeometry x="40" y="40" width="240" height="240" as="geometry" />
        </mxCell>
        <mxCell id="iDNPAJtmDNIAjIKIuADV-2" value="" style="rounded=0;whiteSpace=wrap;html=1;fillColor=none;" parent="1" vertex="1">
          <mxGeometry x="320" y="40" width="240" height="240" as="geometry" />
        </mxCell>
        <mxCell id="iDNPAJtmDNIAjIKIuADV-3" value="" style="rounded=0;whiteSpace=wrap;html=1;fillColor=none;" parent="1" vertex="1">
          <mxGeometry x="600" y="39" width="240" height="240" as="geometry" />
        </mxCell>
        <mxCell id="iDNPAJtmDNIAjIKIuADV-7" value="" style="rounded=0;whiteSpace=wrap;html=1;fillColor=none;" parent="1" vertex="1">
          <mxGeometry x="600" y="320" width="240" height="240" as="geometry" />
        </mxCell>
        <mxCell id="iDNPAJtmDNIAjIKIuADV-12" value="" style="endArrow=none;html=1;rounded=0;exitX=0;exitY=0.75;exitDx=0;exitDy=0;curved=1;entryX=0.997;entryY=0.74;entryDx=0;entryDy=0;entryPerimeter=0;strokeColor=#006600;strokeWidth=2;" parent="1" source="iDNPAJtmDNIAjIKIuADV-1" target="iDNPAJtmDNIAjIKIuADV-1" edge="1">
          <mxGeometry width="50" height="50" relative="1" as="geometry">
            <mxPoint x="320" y="330" as="sourcePoint" />
            <mxPoint x="40" y="220" as="targetPoint" />
            <Array as="points">
              <mxPoint x="140" y="230" />
              <mxPoint x="230" y="110" />
              <mxPoint x="170" y="80" />
              <mxPoint x="120" y="140" />
              <mxPoint x="210" y="190" />
            </Array>
          </mxGeometry>
        </mxCell>
        <mxCell id="Wm-q2kJo23_BuhXE9oVK-9" value="" style="endArrow=none;html=1;rounded=0;curved=1;startFill=1;endFill=1;startFillColor=#FF33FF;endFillColor=#FF33FF;strokeColor=#CC0000;" parent="1" edge="1">
          <mxGeometry width="50" height="50" relative="1" as="geometry">
            <mxPoint x="120" y="-280" as="sourcePoint" />
            <mxPoint x="120" y="-280" as="targetPoint" />
            <Array as="points">
              <mxPoint x="120" y="-240" />
              <mxPoint x="250" y="-100" />
              <mxPoint x="300" y="-140" />
              <mxPoint x="430" y="-120" />
              <mxPoint x="120" y="-370" />
            </Array>
          </mxGeometry>
        </mxCell>
        <mxCell id="Wm-q2kJo23_BuhXE9oVK-11" value="" style="verticalLabelPosition=bottom;verticalAlign=top;html=1;shape=mxgraph.basic.polygon;polyCoords=[[0.2,0],[0.75,0],[1,0.25],[1,0.75],[0.75,1],[0.25,1],[0,0.75],[0,0.27]];polyline=1;fillColor=#4D4D4D;perimeterSpacing=0;strokeWidth=3;" parent="1" vertex="1">
          <mxGeometry x="510" y="-240" width="150" height="150" as="geometry" />
        </mxCell>
        <mxCell id="Wm-q2kJo23_BuhXE9oVK-15" value="" style="shape=umlActor;verticalLabelPosition=bottom;verticalAlign=top;html=1;outlineConnect=0;" parent="1" vertex="1">
          <mxGeometry x="50" y="196" width="10" height="20" as="geometry" />
        </mxCell>
        <mxCell id="Wm-q2kJo23_BuhXE9oVK-19" value="" style="ellipse;whiteSpace=wrap;html=1;aspect=fixed;fillColor=#007FFF;strokeColor=none;" parent="1" vertex="1">
          <mxGeometry x="37" y="217" width="6" height="6" as="geometry" />
        </mxCell>
        <mxCell id="Wm-q2kJo23_BuhXE9oVK-20" value="" style="ellipse;whiteSpace=wrap;html=1;aspect=fixed;fillColor=#007FFF;strokeColor=none;" parent="1" vertex="1">
          <mxGeometry x="138" y="204" width="6" height="6" as="geometry" />
        </mxCell>
        <mxCell id="Wm-q2kJo23_BuhXE9oVK-21" value="" style="ellipse;whiteSpace=wrap;html=1;aspect=fixed;fillColor=#007FFF;strokeColor=none;" parent="1" vertex="1">
          <mxGeometry x="200" y="140" width="6" height="6" as="geometry" />
        </mxCell>
        <mxCell id="Wm-q2kJo23_BuhXE9oVK-22" value="" style="ellipse;whiteSpace=wrap;html=1;aspect=fixed;fillColor=#007FFF;strokeColor=none;" parent="1" vertex="1">
          <mxGeometry x="160" y="92" width="6" height="6" as="geometry" />
        </mxCell>
        <mxCell id="Wm-q2kJo23_BuhXE9oVK-23" value="" style="ellipse;whiteSpace=wrap;html=1;aspect=fixed;fillColor=#007FFF;strokeColor=none;" parent="1" vertex="1">
          <mxGeometry x="151" y="156" width="6" height="6" as="geometry" />
        </mxCell>
        <mxCell id="Wm-q2kJo23_BuhXE9oVK-24" value="" style="ellipse;whiteSpace=wrap;html=1;aspect=fixed;fillColor=#007FFF;strokeColor=none;" parent="1" vertex="1">
          <mxGeometry x="210" y="187" width="6" height="6" as="geometry" />
        </mxCell>
        <mxCell id="Wm-q2kJo23_BuhXE9oVK-25" value="" style="ellipse;whiteSpace=wrap;html=1;aspect=fixed;fillColor=#007FFF;strokeColor=none;" parent="1" vertex="1">
          <mxGeometry x="277" y="217" width="6" height="6" as="geometry" />
        </mxCell>
        <mxCell id="Wm-q2kJo23_BuhXE9oVK-26" value="" style="endArrow=none;html=1;rounded=0;exitX=0;exitY=0.75;exitDx=0;exitDy=0;entryX=1;entryY=0.75;entryDx=0;entryDy=0;strokeWidth=2;strokeColor=#006600;curved=1;" parent="1" edge="1">
          <mxGeometry width="50" height="50" relative="1" as="geometry">
            <mxPoint x="320" y="223" as="sourcePoint" />
            <mxPoint x="560" y="223" as="targetPoint" />
            <Array as="points">
              <mxPoint x="390" y="233" />
              <mxPoint x="410" y="100" />
              <mxPoint x="480" y="80" />
              <mxPoint x="530" y="110" />
              <mxPoint x="490" y="160" />
              <mxPoint x="380" y="160" />
              <mxPoint x="450" y="220" />
            </Array>
          </mxGeometry>
        </mxCell>
        <mxCell id="Wm-q2kJo23_BuhXE9oVK-27" value="" style="ellipse;whiteSpace=wrap;html=1;aspect=fixed;fillColor=#007FFF;strokeColor=none;" parent="1" vertex="1">
          <mxGeometry x="317" y="220" width="6" height="6" as="geometry" />
        </mxCell>
        <mxCell id="Wm-q2kJo23_BuhXE9oVK-29" value="" style="ellipse;whiteSpace=wrap;html=1;aspect=fixed;fillColor=#007FFF;strokeColor=none;" parent="1" vertex="1">
          <mxGeometry x="373" y="210" width="6" height="6" as="geometry" />
        </mxCell>
        <mxCell id="Wm-q2kJo23_BuhXE9oVK-30" value="" style="ellipse;whiteSpace=wrap;html=1;aspect=fixed;fillColor=#007FFF;strokeColor=none;" parent="1" vertex="1">
          <mxGeometry x="395" y="171" width="6" height="6" as="geometry" />
        </mxCell>
        <mxCell id="Wm-q2kJo23_BuhXE9oVK-32" value="" style="ellipse;whiteSpace=wrap;html=1;aspect=fixed;fillColor=#007FFF;strokeColor=none;" parent="1" vertex="1">
          <mxGeometry x="409" y="120" width="6" height="6" as="geometry" />
        </mxCell>
        <mxCell id="Wm-q2kJo23_BuhXE9oVK-33" value="" style="ellipse;whiteSpace=wrap;html=1;aspect=fixed;fillColor=#007FFF;strokeColor=none;" parent="1" vertex="1">
          <mxGeometry x="446" y="86" width="6" height="6" as="geometry" />
        </mxCell>
        <mxCell id="Wm-q2kJo23_BuhXE9oVK-34" value="" style="ellipse;whiteSpace=wrap;html=1;aspect=fixed;fillColor=#007FFF;strokeColor=none;" parent="1" vertex="1">
          <mxGeometry x="490" y="87" width="6" height="6" as="geometry" />
        </mxCell>
        <mxCell id="Wm-q2kJo23_BuhXE9oVK-35" value="" style="ellipse;whiteSpace=wrap;html=1;aspect=fixed;fillColor=#007FFF;strokeColor=none;" parent="1" vertex="1">
          <mxGeometry x="516" y="114" width="6" height="6" as="geometry" />
        </mxCell>
        <mxCell id="Wm-q2kJo23_BuhXE9oVK-36" value="" style="ellipse;whiteSpace=wrap;html=1;aspect=fixed;fillColor=#007FFF;strokeColor=none;" parent="1" vertex="1">
          <mxGeometry x="492" y="144" width="6" height="6" as="geometry" />
        </mxCell>
        <mxCell id="Wm-q2kJo23_BuhXE9oVK-37" value="" style="ellipse;whiteSpace=wrap;html=1;aspect=fixed;fillColor=#007FFF;strokeColor=none;" parent="1" vertex="1">
          <mxGeometry x="446" y="156" width="6" height="6" as="geometry" />
        </mxCell>
        <mxCell id="Wm-q2kJo23_BuhXE9oVK-38" value="" style="ellipse;whiteSpace=wrap;html=1;aspect=fixed;fillColor=#007FFF;strokeColor=none;" parent="1" vertex="1">
          <mxGeometry x="409" y="159" width="6" height="6" as="geometry" />
        </mxCell>
        <mxCell id="Wm-q2kJo23_BuhXE9oVK-39" value="" style="ellipse;whiteSpace=wrap;html=1;aspect=fixed;fillColor=#007FFF;strokeColor=none;" parent="1" vertex="1">
          <mxGeometry x="419" y="192" width="6" height="6" as="geometry" />
        </mxCell>
        <mxCell id="Wm-q2kJo23_BuhXE9oVK-40" value="" style="ellipse;whiteSpace=wrap;html=1;aspect=fixed;fillColor=#007FFF;strokeColor=none;" parent="1" vertex="1">
          <mxGeometry x="465" y="210" width="6" height="6" as="geometry" />
        </mxCell>
        <mxCell id="Wm-q2kJo23_BuhXE9oVK-41" value="" style="ellipse;whiteSpace=wrap;html=1;aspect=fixed;fillColor=#007FFF;strokeColor=none;" parent="1" vertex="1">
          <mxGeometry x="520" y="218" width="6" height="6" as="geometry" />
        </mxCell>
        <mxCell id="Wm-q2kJo23_BuhXE9oVK-42" value="" style="ellipse;whiteSpace=wrap;html=1;aspect=fixed;fillColor=#007FFF;strokeColor=none;" parent="1" vertex="1">
          <mxGeometry x="557" y="220" width="6" height="6" as="geometry" />
        </mxCell>
        <mxCell id="Wm-q2kJo23_BuhXE9oVK-43" value="" style="endArrow=none;html=1;rounded=0;strokeColor=#006600;strokeWidth=2;exitX=0;exitY=0.75;exitDx=0;exitDy=0;curved=1;entryX=1;entryY=0.75;entryDx=0;entryDy=0;" parent="1" source="iDNPAJtmDNIAjIKIuADV-3" target="iDNPAJtmDNIAjIKIuADV-3" edge="1">
          <mxGeometry width="50" height="50" relative="1" as="geometry">
            <mxPoint x="440" y="290" as="sourcePoint" />
            <mxPoint x="930" y="210" as="targetPoint" />
            <Array as="points">
              <mxPoint x="670" y="210" />
              <mxPoint x="710" y="200" />
              <mxPoint x="700" y="60" />
              <mxPoint x="720" y="200" />
            </Array>
          </mxGeometry>
        </mxCell>
        <mxCell id="Wm-q2kJo23_BuhXE9oVK-46" value="" style="ellipse;whiteSpace=wrap;html=1;aspect=fixed;fillColor=#007FFF;strokeColor=none;" parent="1" vertex="1">
          <mxGeometry x="597" y="217" width="6" height="6" as="geometry" />
        </mxCell>
        <mxCell id="Wm-q2kJo23_BuhXE9oVK-47" value="" style="ellipse;whiteSpace=wrap;html=1;aspect=fixed;fillColor=#007FFF;strokeColor=none;" parent="1" vertex="1">
          <mxGeometry x="714" y="150" width="6" height="6" as="geometry" />
        </mxCell>
        <mxCell id="Wm-q2kJo23_BuhXE9oVK-49" value="" style="ellipse;whiteSpace=wrap;html=1;aspect=fixed;fillColor=#007FFF;strokeColor=none;" parent="1" vertex="1">
          <mxGeometry x="701" y="92" width="6" height="6" as="geometry" />
        </mxCell>
        <mxCell id="Wm-q2kJo23_BuhXE9oVK-50" value="" style="ellipse;whiteSpace=wrap;html=1;aspect=fixed;fillColor=#007FFF;strokeColor=none;" parent="1" vertex="1">
          <mxGeometry x="702" y="171" width="6" height="6" as="geometry" />
        </mxCell>
        <mxCell id="Wm-q2kJo23_BuhXE9oVK-51" value="" style="endArrow=none;html=1;rounded=0;strokeWidth=2;strokeColor=#006600;exitX=0;exitY=0.75;exitDx=0;exitDy=0;entryX=1;entryY=0.75;entryDx=0;entryDy=0;curved=1;" parent="1" edge="1">
          <mxGeometry width="50" height="50" relative="1" as="geometry">
            <mxPoint x="40" y="500" as="sourcePoint" />
            <mxPoint x="280" y="500" as="targetPoint" />
            <Array as="points">
              <mxPoint x="180" y="540" />
              <mxPoint x="210" y="510" />
              <mxPoint x="200" y="450" />
              <mxPoint x="150" y="450" />
              <mxPoint x="130" y="500" />
              <mxPoint x="70" y="470" />
              <mxPoint x="160" y="340" />
            </Array>
          </mxGeometry>
        </mxCell>
        <mxCell id="Wm-q2kJo23_BuhXE9oVK-52" value="" style="shape=umlActor;verticalLabelPosition=bottom;verticalAlign=top;html=1;outlineConnect=0;" parent="1" vertex="1">
          <mxGeometry x="60" y="460" width="20" height="40" as="geometry" />
        </mxCell>
        <mxCell id="Wm-q2kJo23_BuhXE9oVK-53" value="" style="endArrow=none;html=1;rounded=0;strokeWidth=2;strokeColor=#006600;exitX=0;exitY=0.75;exitDx=0;exitDy=0;entryX=1;entryY=0.75;entryDx=0;entryDy=0;curved=1;" parent="1" edge="1">
          <mxGeometry width="50" height="50" relative="1" as="geometry">
            <mxPoint x="320" y="500" as="sourcePoint" />
            <mxPoint x="560" y="500" as="targetPoint" />
            <Array as="points">
              <mxPoint x="390" y="420" />
              <mxPoint x="430" y="470" />
              <mxPoint x="420" y="550" />
              <mxPoint x="500" y="540" />
              <mxPoint x="540" y="510" />
              <mxPoint x="480" y="480" />
              <mxPoint x="450" y="520" />
              <mxPoint x="430" y="450" />
              <mxPoint x="480" y="420" />
            </Array>
          </mxGeometry>
        </mxCell>
        <mxCell id="Wm-q2kJo23_BuhXE9oVK-54" value="" style="shape=umlActor;verticalLabelPosition=bottom;verticalAlign=top;html=1;outlineConnect=0;" parent="1" vertex="1">
          <mxGeometry x="330" y="420" width="20" height="40" as="geometry" />
        </mxCell>
        <mxCell id="Wm-q2kJo23_BuhXE9oVK-55" value="" style="endArrow=classic;startArrow=classic;html=1;rounded=0;strokeColor=#CC0000;strokeWidth=1;endFill=1;startFill=1;endSize=2;startSize=2;" parent="1" edge="1">
          <mxGeometry width="50" height="50" relative="1" as="geometry">
            <mxPoint x="420" y="460" as="sourcePoint" />
            <mxPoint x="437" y="460" as="targetPoint" />
          </mxGeometry>
        </mxCell>
        <mxCell id="Wm-q2kJo23_BuhXE9oVK-56" value="" style="endArrow=classic;startArrow=classic;html=1;rounded=0;strokeColor=#CC0000;strokeWidth=1;endFill=1;startFill=1;endSize=2;startSize=2;" parent="1" edge="1">
          <mxGeometry width="50" height="50" relative="1" as="geometry">
            <mxPoint x="110" y="518" as="sourcePoint" />
            <mxPoint x="110" y="490" as="targetPoint" />
          </mxGeometry>
        </mxCell>
        <mxCell id="Wm-q2kJo23_BuhXE9oVK-59" value="" style="verticalLabelPosition=bottom;verticalAlign=top;html=1;shape=mxgraph.basic.flash;fillColor=#CC0000;strokeColor=none;" parent="1" vertex="1">
          <mxGeometry x="180" y="180" width="6" height="15" as="geometry" />
        </mxCell>
        <mxCell id="Wm-q2kJo23_BuhXE9oVK-60" value="" style="ellipse;whiteSpace=wrap;html=1;aspect=fixed;fillColor=#007FFF;strokeColor=none;" parent="1" vertex="1">
          <mxGeometry x="763" y="195" width="6" height="6" as="geometry" />
        </mxCell>
        <mxCell id="Wm-q2kJo23_BuhXE9oVK-61" value="" style="verticalLabelPosition=bottom;verticalAlign=top;html=1;shape=mxgraph.basic.flash;fillColor=#CC0000;strokeColor=none;" parent="1" vertex="1">
          <mxGeometry x="399" y="182.5" width="6" height="15" as="geometry" />
        </mxCell>
        <mxCell id="Wm-q2kJo23_BuhXE9oVK-62" value="" style="verticalLabelPosition=bottom;verticalAlign=top;html=1;shape=mxgraph.basic.flash;fillColor=#CC0000;strokeColor=none;" parent="1" vertex="1">
          <mxGeometry x="120" y="496" width="6" height="15" as="geometry" />
        </mxCell>
        <mxCell id="Wm-q2kJo23_BuhXE9oVK-63" value="" style="verticalLabelPosition=bottom;verticalAlign=top;html=1;shape=mxgraph.basic.flash;fillColor=#CC0000;strokeColor=none;" parent="1" vertex="1">
          <mxGeometry x="425" y="440" width="6" height="15" as="geometry" />
        </mxCell>
        <mxCell id="Wm-q2kJo23_BuhXE9oVK-64" value="" style="verticalLabelPosition=bottom;verticalAlign=top;html=1;shape=mxgraph.basic.flash;fillColor=#CC0000;strokeColor=none;" parent="1" vertex="1">
          <mxGeometry x="714" y="165" width="6" height="15" as="geometry" />
        </mxCell>
        <mxCell id="Wm-q2kJo23_BuhXE9oVK-68" value="" style="ellipse;whiteSpace=wrap;html=1;aspect=fixed;fillColor=#007FFF;strokeColor=none;" parent="1" vertex="1">
          <mxGeometry x="663" y="206" width="6" height="6" as="geometry" />
        </mxCell>
        <mxCell id="Wm-q2kJo23_BuhXE9oVK-69" value="" style="ellipse;whiteSpace=wrap;html=1;aspect=fixed;fillColor=#007FFF;strokeColor=none;" parent="1" vertex="1">
          <mxGeometry x="837" y="216" width="6" height="6" as="geometry" />
        </mxCell>
        <mxCell id="Wm-q2kJo23_BuhXE9oVK-70" value="" style="shape=umlActor;verticalLabelPosition=bottom;verticalAlign=top;html=1;outlineConnect=0;" parent="1" vertex="1">
          <mxGeometry x="610" y="530" width="10" height="20" as="geometry" />
        </mxCell>
        <mxCell id="Wm-q2kJo23_BuhXE9oVK-71" value="" style="endArrow=none;html=1;rounded=0;curved=1;strokeWidth=2;strokeColor=#006600;exitX=0;exitY=1;exitDx=0;exitDy=0;entryX=1;entryY=0.5;entryDx=0;entryDy=0;" parent="1" source="iDNPAJtmDNIAjIKIuADV-7" target="iDNPAJtmDNIAjIKIuADV-7" edge="1">
          <mxGeometry width="50" height="50" relative="1" as="geometry">
            <mxPoint x="660" y="510" as="sourcePoint" />
            <mxPoint x="820" y="590.7692307692307" as="targetPoint" />
            <Array as="points">
              <mxPoint x="650" y="550" />
              <mxPoint x="680" y="470" />
              <mxPoint x="610" y="270" />
            </Array>
          </mxGeometry>
        </mxCell>
        <mxCell id="Wm-q2kJo23_BuhXE9oVK-72" value="" style="verticalLabelPosition=bottom;verticalAlign=top;html=1;shape=mxgraph.basic.flash;fillColor=#CC0000;strokeColor=none;" parent="1" vertex="1">
          <mxGeometry x="630" y="440" width="6" height="15" as="geometry" />
        </mxCell>
        <mxCell id="Wm-q2kJo23_BuhXE9oVK-73" value="" style="endArrow=classic;startArrow=classic;html=1;rounded=0;strokeColor=#CC0000;strokeWidth=1;endFill=1;startFill=1;endSize=2;startSize=2;" parent="1" edge="1">
          <mxGeometry width="50" height="50" relative="1" as="geometry">
            <mxPoint x="640" y="544" as="sourcePoint" />
            <mxPoint x="640" y="350" as="targetPoint" />
          </mxGeometry>
        </mxCell>
        <mxCell id="Wm-q2kJo23_BuhXE9oVK-74" value="" style="rounded=0;whiteSpace=wrap;html=1;fillColor=none;" parent="1" vertex="1">
          <mxGeometry x="40" y="600" width="240" height="240" as="geometry" />
        </mxCell>
        <mxCell id="Wm-q2kJo23_BuhXE9oVK-76" value="" style="rounded=0;whiteSpace=wrap;html=1;fillColor=none;" parent="1" vertex="1">
          <mxGeometry x="320" y="600" width="240" height="240" as="geometry" />
        </mxCell>
        <mxCell id="Wm-q2kJo23_BuhXE9oVK-77" value="Right&lt;br&gt;Screen border" style="endArrow=none;dashed=1;html=1;rounded=0;exitX=0.75;exitY=1;exitDx=0;exitDy=0;entryX=0.75;entryY=0;entryDx=0;entryDy=0;" parent="1" edge="1">
          <mxGeometry x="0.8333" width="50" height="50" relative="1" as="geometry">
            <mxPoint x="240" y="840" as="sourcePoint" />
            <mxPoint x="240" y="600" as="targetPoint" />
            <mxPoint as="offset" />
          </mxGeometry>
        </mxCell>
        <mxCell id="Wm-q2kJo23_BuhXE9oVK-78" value="" style="endArrow=none;html=1;rounded=0;exitX=0;exitY=0.75;exitDx=0;exitDy=0;entryX=1;entryY=0.5;entryDx=0;entryDy=0;strokeWidth=2;strokeColor=#006600;curved=1;" parent="1" source="Wm-q2kJo23_BuhXE9oVK-74" target="Wm-q2kJo23_BuhXE9oVK-74" edge="1">
          <mxGeometry width="50" height="50" relative="1" as="geometry">
            <mxPoint x="90" y="760" as="sourcePoint" />
            <mxPoint x="220" y="920" as="targetPoint" />
            <Array as="points">
              <mxPoint x="160" y="810" />
              <mxPoint x="280" y="800" />
              <mxPoint x="260" y="760" />
              <mxPoint x="190" y="740" />
              <mxPoint x="80" y="750" />
              <mxPoint x="50" y="690" />
              <mxPoint x="200" y="690" />
              <mxPoint x="240" y="740" />
            </Array>
          </mxGeometry>
        </mxCell>
        <mxCell id="Wm-q2kJo23_BuhXE9oVK-79" value="" style="shape=umlActor;verticalLabelPosition=bottom;verticalAlign=top;html=1;outlineConnect=0;" parent="1" vertex="1">
          <mxGeometry x="80" y="766" width="10" height="20" as="geometry" />
        </mxCell>
        <mxCell id="Wm-q2kJo23_BuhXE9oVK-80" value="Monster" style="endArrow=none;dashed=1;html=1;rounded=0;exitX=0.75;exitY=1;exitDx=0;exitDy=0;entryX=0.75;entryY=0;entryDx=0;entryDy=0;" parent="1" edge="1">
          <mxGeometry x="0.9167" width="50" height="50" relative="1" as="geometry">
            <mxPoint x="60" y="840" as="sourcePoint" />
            <mxPoint x="60" y="600" as="targetPoint" />
            <mxPoint as="offset" />
          </mxGeometry>
        </mxCell>
        <mxCell id="Wm-q2kJo23_BuhXE9oVK-81" value="" style="endArrow=classic;startArrow=classic;html=1;rounded=0;strokeColor=#CC0000;strokeWidth=1;endFill=1;startFill=1;endSize=2;startSize=2;" parent="1" edge="1">
          <mxGeometry width="50" height="50" relative="1" as="geometry">
            <mxPoint x="63" y="710" as="sourcePoint" />
            <mxPoint x="270" y="710" as="targetPoint" />
          </mxGeometry>
        </mxCell>
        <mxCell id="Wm-q2kJo23_BuhXE9oVK-82" value="" style="endArrow=none;dashed=1;html=1;dashPattern=1 3;strokeWidth=1;rounded=0;strokeColor=#CC0000;" parent="1" edge="1">
          <mxGeometry width="50" height="50" relative="1" as="geometry">
            <mxPoint x="270" y="790" as="sourcePoint" />
            <mxPoint x="270" y="710" as="targetPoint" />
          </mxGeometry>
        </mxCell>
        <mxCell id="Wm-q2kJo23_BuhXE9oVK-83" value="" style="verticalLabelPosition=bottom;verticalAlign=top;html=1;shape=mxgraph.basic.flash;fillColor=#CC0000;strokeColor=none;" parent="1" vertex="1">
          <mxGeometry x="132" y="712.5" width="6" height="15" as="geometry" />
        </mxCell>
        <mxCell id="Wm-q2kJo23_BuhXE9oVK-84" value="" style="endArrow=none;html=1;rounded=0;exitX=0;exitY=0.75;exitDx=0;exitDy=0;curved=1;entryX=1;entryY=0.75;entryDx=0;entryDy=0;strokeWidth=2;strokeColor=#006600;" parent="1" edge="1">
          <mxGeometry width="50" height="50" relative="1" as="geometry">
            <mxPoint x="320.0000000000001" y="780" as="sourcePoint" />
            <mxPoint x="560" y="780" as="targetPoint" />
            <Array as="points">
              <mxPoint x="360" y="820" />
              <mxPoint x="440" y="810" />
              <mxPoint x="410" y="790" />
              <mxPoint x="380" y="780" />
              <mxPoint x="440" y="740" />
              <mxPoint x="370" y="730" />
              <mxPoint x="440" y="690" />
              <mxPoint x="360" y="680" />
              <mxPoint x="400" y="620" />
              <mxPoint x="530" y="690" />
              <mxPoint x="520" y="780" />
            </Array>
          </mxGeometry>
        </mxCell>
        <mxCell id="Wm-q2kJo23_BuhXE9oVK-85" value="" style="shape=umlActor;verticalLabelPosition=bottom;verticalAlign=top;html=1;outlineConnect=0;" parent="1" vertex="1">
          <mxGeometry x="330" y="766" width="10" height="20" as="geometry" />
        </mxCell>
        <mxCell id="Wm-q2kJo23_BuhXE9oVK-86" value="" style="endArrow=classic;startArrow=classic;html=1;rounded=0;strokeColor=#CC0000;strokeWidth=1;endFill=1;startFill=1;endSize=2;startSize=2;" parent="1" edge="1">
          <mxGeometry width="50" height="50" relative="1" as="geometry">
            <mxPoint x="320" y="726" as="sourcePoint" />
            <mxPoint x="387" y="726" as="targetPoint" />
          </mxGeometry>
        </mxCell>
        <mxCell id="Wm-q2kJo23_BuhXE9oVK-87" value="min x" style="endArrow=none;dashed=1;html=1;dashPattern=1 3;strokeWidth=1;rounded=0;strokeColor=#CC0000;fontColor=#CC0000;" parent="1" edge="1">
          <mxGeometry x="-0.9167" width="50" height="50" relative="1" as="geometry">
            <mxPoint x="390" y="840" as="sourcePoint" />
            <mxPoint x="390" y="600" as="targetPoint" />
            <mxPoint as="offset" />
          </mxGeometry>
        </mxCell>
        <mxCell id="Wm-q2kJo23_BuhXE9oVK-88" value="" style="endArrow=classic;startArrow=classic;html=1;rounded=0;strokeColor=#CC0000;strokeWidth=1;endFill=1;startFill=1;endSize=2;startSize=2;" parent="1" edge="1">
          <mxGeometry width="50" height="50" relative="1" as="geometry">
            <mxPoint x="320" y="666" as="sourcePoint" />
            <mxPoint x="373" y="666" as="targetPoint" />
          </mxGeometry>
        </mxCell>
        <mxCell id="Wm-q2kJo23_BuhXE9oVK-89" value="" style="verticalLabelPosition=bottom;verticalAlign=top;html=1;shape=mxgraph.basic.flash;fillColor=#CC0000;strokeColor=none;" parent="1" vertex="1">
          <mxGeometry x="347" y="648" width="6" height="15" as="geometry" />
        </mxCell>
        <mxCell id="Wm-q2kJo23_BuhXE9oVK-90" value="" style="verticalLabelPosition=bottom;verticalAlign=top;html=1;shape=mxgraph.basic.flash;fillColor=#CC0000;strokeColor=none;" parent="1" vertex="1">
          <mxGeometry x="353" y="708" width="6" height="15" as="geometry" />
        </mxCell>
        <mxCell id="Wm-q2kJo23_BuhXE9oVK-92" value="" style="rhombus;whiteSpace=wrap;html=1;fillColor=#CC0000;strokeColor=none;" parent="1" vertex="1">
          <mxGeometry x="176" y="169" width="10" height="10" as="geometry" />
        </mxCell>
        <mxCell id="Wm-q2kJo23_BuhXE9oVK-94" value="" style="endArrow=classic;startArrow=classic;html=1;rounded=0;strokeColor=#CC0000;strokeWidth=1;endFill=1;startFill=1;endSize=2;startSize=2;entryX=0.56;entryY=0.523;entryDx=0;entryDy=0;entryPerimeter=0;" parent="1" target="Wm-q2kJo23_BuhXE9oVK-38" edge="1">
          <mxGeometry width="50" height="50" relative="1" as="geometry">
            <mxPoint x="398" y="173.93" as="sourcePoint" />
            <mxPoint x="415" y="173.93" as="targetPoint" />
          </mxGeometry>
        </mxCell>
        <mxCell id="Wm-q2kJo23_BuhXE9oVK-95" value="" style="endArrow=none;html=1;rounded=0;entryX=0.502;entryY=0.56;entryDx=0;entryDy=0;entryPerimeter=0;exitX=0.493;exitY=0.517;exitDx=0;exitDy=0;exitPerimeter=0;strokeWidth=0.5;strokeColor=#CC0000;" parent="1" source="Wm-q2kJo23_BuhXE9oVK-50" target="Wm-q2kJo23_BuhXE9oVK-49" edge="1">
          <mxGeometry width="50" height="50" relative="1" as="geometry">
            <mxPoint x="650" y="180" as="sourcePoint" />
            <mxPoint x="700" y="130" as="targetPoint" />
          </mxGeometry>
        </mxCell>
        <mxCell id="Wm-q2kJo23_BuhXE9oVK-96" value="" style="endArrow=none;html=1;rounded=0;entryX=0.502;entryY=0.631;entryDx=0;entryDy=0;entryPerimeter=0;exitX=0.463;exitY=0.492;exitDx=0;exitDy=0;exitPerimeter=0;strokeWidth=0.5;strokeColor=#CC0000;" parent="1" source="Wm-q2kJo23_BuhXE9oVK-47" target="Wm-q2kJo23_BuhXE9oVK-49" edge="1">
          <mxGeometry width="50" height="50" relative="1" as="geometry">
            <mxPoint x="715" y="184" as="sourcePoint" />
            <mxPoint x="714" y="105" as="targetPoint" />
          </mxGeometry>
        </mxCell>
        <mxCell id="Wm-q2kJo23_BuhXE9oVK-97" value="" style="verticalLabelPosition=bottom;verticalAlign=top;html=1;shape=mxgraph.basic.arc;startAngle=0.8216314671744844;endAngle=0.007068901055036377;rotation=203;strokeWidth=0.5;fillColor=none;strokeColor=#CC0000;" parent="1" vertex="1">
          <mxGeometry x="699" y="130" width="20" height="20" as="geometry" />
        </mxCell>
      </root>
    </mxGraphModel>
  </diagram>
</mxfile>
